<?xml version="1.0" encoding="UTF-8" standalone="no"?>
<!-- Created with Inkscape (http://www.inkscape.org/) -->

<svg
   width="200"
   height="80"
   viewBox="0 0 52.916665 21.166667"
   version="1.1"
   id="svg1"
   inkscape:version="1.3.2 (091e20e, 2023-11-25)"
   sodipodi:docname="icons.svg"
   inkscape:export-filename="control-icons.png"
   inkscape:export-xdpi="96"
   inkscape:export-ydpi="96"
   xmlns:inkscape="http://www.inkscape.org/namespaces/inkscape"
   xmlns:sodipodi="http://sodipodi.sourceforge.net/DTD/sodipodi-0.dtd"
   xmlns="http://www.w3.org/2000/svg"
   xmlns:svg="http://www.w3.org/2000/svg">
  <sodipodi:namedview
     id="namedview1"
     pagecolor="#505050"
     bordercolor="#ffffff"
     borderopacity="1"
     inkscape:showpageshadow="0"
     inkscape:pageopacity="0"
     inkscape:pagecheckerboard="1"
     inkscape:deskcolor="#505050"
     inkscape:document-units="px"
     showguides="true"
     showgrid="true"
     inkscape:zoom="4.3963289"
     inkscape:cx="73.356659"
     inkscape:cy="12.624169"
     inkscape:window-width="2096"
     inkscape:window-height="1212"
     inkscape:window-x="435"
     inkscape:window-y="25"
     inkscape:window-maximized="0"
     inkscape:current-layer="g37">
    <sodipodi:guide
       position="13.489898,267.02244"
       orientation="0,-1"
       id="guide2"
       inkscape:locked="false" />
    <inkscape:grid
       id="grid2"
       units="mm"
       originx="0"
       originy="0"
       spacingx="0.99999998"
       spacingy="1"
       empcolor="#0099e5"
       empopacity="0.30196078"
       color="#0099e5"
       opacity="0.14901961"
       empspacing="5"
       dotted="false"
       gridanglex="30"
       gridanglez="30"
       visible="true" />
  </sodipodi:namedview>
  <defs
     id="defs1">
    <linearGradient
       id="swatch9"
       inkscape:swatch="solid">
      <stop
         style="stop-color:#000000;stop-opacity:1;"
         offset="0"
         id="stop9" />
    </linearGradient>
  </defs>
  <g
     inkscape:label="top_heater_off"
     inkscape:groupmode="layer"
     id="g49"
     transform="matrix(1.3333333,0,0,1.3333333,21.166667,10.583333)"
     style="display:inline">
    <rect
       style="fill:none;fill-opacity:1;stroke:#cccccc;stroke-width:0.256048;stroke-linejoin:round;stroke-dasharray:none;stroke-opacity:1"
       id="rect48"
       width="7.6814523"
       height="7.6814518"
       x="0.12802373"
       y="0.12802404"
       rx="0.50594765"
       ry="0.50594771" />
    <rect
       style="fill:#cccccc;fill-opacity:1;stroke:#cccccc;stroke-width:0;stroke-linejoin:round;stroke-dasharray:none;stroke-opacity:1"
       id="rect49"
       width="6.614583"
       height="0.79374999"
       x="0.69804054"
       y="1.0583333"
       ry="0.3601763"
       rx="0.26458332" />
  </g>
  <g
     inkscape:label="fan_off"
     inkscape:groupmode="layer"
     id="g17"
     transform="matrix(1.3333332,0,0,1.3333332,10.583333,10.583333)"
     style="display:inline">
    <path
       style="fill:#cccccc;fill-opacity:1;stroke:none;stroke-width:0.063389;stroke-opacity:1"
       d="m 3.6420212,3.6807955 c 0,0 0.1972558,0.1469182 0.2391194,-0.055346 C 3.9230056,3.4231841 4.28218,1.3510432 4.28218,1.3510432 c 0,0 0.030368,-0.1019066 -0.2134487,-0.1253959 -0.2438155,-0.02349 -2.1330729,1.0231522 -0.4267101,2.4551482 z"
       id="path13" />
    <path
       style="fill:#cccccc;fill-opacity:1;stroke:none;stroke-width:0.063389;stroke-opacity:1"
       d="m 4.3259402,4.256703 c 0,0 -0.197256,-0.1469184 -0.2391198,0.055347 -0.041864,0.2022653 -0.4010394,2.2744064 -0.4010394,2.2744064 0,0 -0.030368,0.1019064 0.2134488,0.125396 0.2438154,0.023488 2.1330729,-1.0231537 0.4267104,-2.4551494 z"
       id="path14" />
    <path
       style="fill:#cccccc;fill-opacity:1;stroke:none;stroke-width:0.063389;stroke-opacity:1"
       d="m 4.2567037,3.6347835 c 0,0 -0.1469184,0.1972558 0.055347,0.2391195 0.2022653,0.041865 2.2744064,0.4010394 2.2744064,0.4010394 0,0 0.1019064,0.030368 0.1253952,-0.2134488 C 6.7353405,3.8176782 5.6886997,1.9284213 4.2567037,3.6347835 Z"
       id="path15" />
    <path
       style="fill:#cccccc;fill-opacity:1;stroke:none;stroke-width:0.063389;stroke-opacity:1"
       d="m 3.6807964,4.3187025 c 0,0 0.146918,-0.197256 -0.055347,-0.2391198 -0.202265,-0.041864 -2.2744062,-0.4010393 -2.2744062,-0.4010393 0,0 -0.1019064,-0.030368 -0.1253959,0.2134487 -0.02349,0.2438155 1.0231529,2.1330728 2.4551491,0.4267104 z"
       id="path16" />
    <rect
       style="fill:none;fill-opacity:1;stroke:#cccccc;stroke-width:0.259059;stroke-linejoin:round;stroke-dasharray:none;stroke-opacity:1"
       id="rect16"
       width="7.6784415"
       height="7.678441"
       x="0.12952937"
       y="0.12952991"
       rx="0.51189607"
       ry="0.51189607" />
  </g>
  <g
     inkscape:label="light_off"
     inkscape:groupmode="layer"
     id="g37"
     transform="matrix(1.3333332,0,0,1.3333332,1.7881392e-7,10.583334)"
     style="display:inline">
    <rect
       style="fill:none;fill-opacity:1;stroke:#cccccc;stroke-width:0.259059;stroke-linejoin:round;stroke-dasharray:none;stroke-opacity:1"
       id="rect36"
       width="7.6784415"
       height="7.678441"
       x="0.12952937"
       y="0.12952921"
       rx="0.51189607"
       ry="0.51189607"
       inkscape:label="rect36" />
    <g
       id="g40"
       transform="translate(-0.0289286,-0.28582303)"
       style="fill:#cccccc;fill-opacity:1">
      <path
         id="path40"
         style="fill:#cccccc;fill-opacity:1;stroke:none;stroke-width:0;stroke-linejoin:round;stroke-dasharray:none;stroke-opacity:1"
         d="M 3.9957916,1.4060873 C 3.8291518,1.4061816 3.6525444,1.4059711 3.5235857,1.4070312 3.417146,1.4079088 3.4148999,1.4506139 3.4183889,1.5674208 H 4.576968 C 4.5804571,1.4506134 4.5782107,1.4079083 4.4717713,1.4070307 4.3428123,1.4059688 4.1662052,1.4061846 3.9995654,1.4060873 Z M 3.4188607,1.7070536 c -0.00123,0.063563 -0.00467,0.1370524 -0.016983,0.2287911 -7.327e-4,0.00546 -0.00159,0.010212 -0.00236,0.015567 h 1.1963227 c -7.686e-4,-0.00536 -0.00162,-0.010108 -0.00236,-0.015567 C 4.5811667,1.844106 4.5777275,1.7706163 4.5764963,1.7070536 Z M 3.3735742,2.0910453 C 3.2921018,2.4305768 3.134405,2.4920192 3.134405,2.4920192 2.632104,2.8473576 2.289264,3.4019191 2.2890574,4.0237401 c 1e-7,0.9653211 0.7549832,1.7539602 1.7067342,1.808157 v 4.718e-4 c 6.267e-4,-3.44e-5 0.00126,3.49e-5 0.00189,0 6.299e-4,3.51e-5 0.00126,-3.46e-5 0.00189,0 V 5.8318971 C 4.9439701,5.8291983 5.7062995,4.989068 5.7062996,4.0237401 5.706093,3.4019191 5.3632532,2.8473576 4.860952,2.4920192 c 0,0 -0.1576967,-0.061442 -0.2391692,-0.4009739 z"
         sodipodi:nodetypes="ccccccccsccccccccccccccccc" />
      <rect
         style="fill:#cccccc;fill-opacity:1;stroke:none;stroke-width:0;stroke-linejoin:round;stroke-dasharray:none;stroke-opacity:1"
         id="rect40"
         width="0.98797935"
         height="0.25405183"
         x="-1.7474029"
         y="5.1193891"
         ry="0.13229166"
         transform="rotate(-32.974084)" />
      <rect
         style="fill:#cccccc;fill-opacity:1;stroke:none;stroke-width:0;stroke-linejoin:round;stroke-dasharray:none;stroke-opacity:1"
         id="rect40-7"
         width="0.98797935"
         height="0.25405183"
         x="-4.0703011"
         y="5.4523692"
         ry="0.13229166"
         transform="rotate(-56.417249)" />
      <rect
         style="fill:#cccccc;fill-opacity:1;stroke:none;stroke-width:0;stroke-linejoin:round;stroke-dasharray:none;stroke-opacity:1"
         id="rect40-9"
         width="0.98797935"
         height="0.25405183"
         x="-8.4548426"
         y="0.76783895"
         ry="0.13229166"
         transform="matrix(-0.83891683,-0.54425963,-0.54425963,0.83891683,0,0)" />
      <rect
         style="fill:#cccccc;fill-opacity:1;stroke:none;stroke-width:0;stroke-linejoin:round;stroke-dasharray:none;stroke-opacity:1"
         id="rect40-7-6"
         width="0.98797935"
         height="0.25405183"
         x="-8.649292"
         y="-1.4440696"
         ry="0.13229166"
         transform="matrix(-0.55314077,-0.8330878,-0.8330878,0.55314077,0,0)" />
      <rect
         style="fill:#cccccc;fill-opacity:1;stroke:none;stroke-width:0;stroke-linejoin:round;stroke-dasharray:none;stroke-opacity:1"
         id="rect40-7-6-2"
         width="0.98797935"
         height="0.25405183"
         x="-7.0442195"
         y="-4.2204633"
         ry="0.13229166"
         transform="matrix(0.014553,-0.9998941,-0.9998941,-0.014553,0,0)" />
    </g>
  </g>
  <g
     inkscape:label="deck_heater_off"
     inkscape:groupmode="layer"
     id="g51"
     transform="matrix(1.3333332,0,0,1.3333332,42.333334,10.583334)"
     style="display:inline">
    <rect
       style="fill:none;fill-opacity:1;stroke:#cccccc;stroke-width:0.259059;stroke-linejoin:round;stroke-dasharray:none;stroke-opacity:1"
       id="rect50"
       width="7.6784415"
       height="7.678441"
       x="0.12952897"
       y="0.12952921"
       rx="0.51189607"
       ry="0.51189607" />
    <rect
       style="fill:#cccccc;fill-opacity:1;stroke:#cccccc;stroke-width:0;stroke-linejoin:round;stroke-dasharray:none;stroke-opacity:1"
       id="rect51"
       width="6.614583"
       height="0.79374999"
       x="0.69804054"
       y="6.0854168"
       ry="0.3601763"
       rx="0.26458332" />
  </g>
  <g
     inkscape:label="deck_heater_on"
     inkscape:groupmode="layer"
     id="g56"
     transform="translate(42.333334)"
     style="display:inline">
    <rect
       style="fill:none;fill-opacity:1;stroke:#ffb43c;stroke-width:0.345412;stroke-linejoin:round;stroke-dasharray:none;stroke-opacity:1"
       id="rect55"
       width="10.237921"
       height="10.237921"
       x="0.17270546"
       y="0.1727057"
       rx="0.68252802"
       ry="0.68252802" />
    <rect
       style="fill:#ffb43c;fill-opacity:1;stroke:#cccccc;stroke-width:0;stroke-linejoin:round;stroke-dasharray:none;stroke-opacity:1"
       id="rect56"
       width="8.8194437"
       height="1.0583333"
       x="0.93072081"
       y="8.1138887"
       ry="0.48023501"
       rx="0.35277772" />
  </g>
  <g
     inkscape:label="grill_off"
     inkscape:groupmode="layer"
     id="g25"
     transform="matrix(1.3333332,0,0,1.3333333,31.75,10.583334)"
     style="display:inline">
    <path
       id="rect47"
       style="fill:#cccccc;fill-opacity:1;stroke:#cccccc;stroke-width:0;stroke-linejoin:round"
       d="M 0.96262386,1.0583333 2.1828639,1.4552085 3.1841119,1.0583333 4.1853599,1.4552085 5.1680662,1.0583333 6.1754947,1.4552085 7.0480402,1.0583333 C 7.1814658,0.997645 7.3126236,1.2189719 7.3126236,1.4185096 v 0.073397 c 0,0.1995376 -0.1180042,0.3601763 -0.2645834,0.3601763 L 6.1816753,2.2489581 5.1927884,1.8520829 4.1729988,2.2489581 3.1779314,1.8520829 2.1890445,2.2489581 0.96262386,1.8520829 C 0.823165,1.8069534 0.69804054,1.6914442 0.69804054,1.4919066 v -0.073397 c 0,-0.1995377 0.11800417,-0.3601763 0.26458332,-0.3601763 z"
       sodipodi:nodetypes="scccccsssscccccssss" />
    <rect
       style="fill:none;fill-opacity:1;stroke:#cccccc;stroke-width:0.259059;stroke-linejoin:round;stroke-dasharray:none;stroke-opacity:1"
       id="rect24"
       width="7.6784415"
       height="7.678441"
       x="0.12952907"
       y="0.12952921"
       rx="0.51189607"
       ry="0.51189607" />
  </g>
  <g
     inkscape:label="grill_on"
     inkscape:groupmode="layer"
     id="g54"
     transform="translate(31.75)"
     style="display:inline">
    <path
       id="path53"
       style="fill:#ffb43c;stroke:#cccccc;stroke-width:0;stroke-linejoin:round"
       d="M 1.2834985,1.4111111 2.9104851,1.9402779 4.2454823,1.4111111 5.5804796,1.9402779 6.8907545,1.4111111 8.2339924,1.9402779 9.3973863,1.4111111 c 0.1779008,-0.080918 0.3527779,0.2141847 0.3527779,0.480235 v 0.097863 c 0,0.2660502 -0.157339,0.4802351 -0.3527779,0.4802351 L 8.2422332,2.9986107 6.9237175,2.4694438 5.5639981,2.9986107 4.2372417,2.4694438 2.9187259,2.9986107 1.2834985,2.4694438 C 1.0975534,2.4092711 0.93072079,2.2552589 0.93072079,1.9892087 v -0.097863 c 0,-0.2660503 0.15733891,-0.480235 0.35277771,-0.4802346 z"
       sodipodi:nodetypes="scccccsssscccccssss" />
    <rect
       style="fill:none;fill-opacity:1;stroke:#ffb43c;stroke-width:0.345412;stroke-linejoin:round;stroke-dasharray:none;stroke-opacity:1"
       id="rect54"
       width="10.237921"
       height="10.237921"
       x="0.17270556"
       y="0.1727057"
       rx="0.68252802"
       ry="0.68252802" />
  </g>
  <g
     inkscape:label="top_heater_on"
     inkscape:groupmode="layer"
     id="g53"
     transform="translate(21.166667)"
     style="display:inline">
    <rect
       style="fill:none;fill-opacity:1;stroke:#ffb43c;stroke-width:0.341397;stroke-linejoin:round;stroke-dasharray:none;stroke-opacity:1"
       id="rect52"
       width="10.241936"
       height="10.241936"
       x="0.17069839"
       y="0.1706987"
       rx="0.67459685"
       ry="0.67459691" />
    <rect
       style="fill:#ffb43c;fill-opacity:1;stroke:#cccccc;stroke-width:0;stroke-linejoin:round;stroke-dasharray:none;stroke-opacity:1"
       id="rect53"
       width="8.8194437"
       height="1.0583333"
       x="0.93072075"
       y="1.411111"
       ry="0.48023504"
       rx="0.35277775" />
  </g>
  <g
     inkscape:label="fan_on"
     inkscape:groupmode="layer"
     id="layer1"
     transform="translate(7.9374999)">
    <g
       id="g13"
       transform="matrix(1.3333333,0,0,1.3333333,2.6458335,0)">
      <path
         style="fill:#ffb43c;fill-opacity:1;stroke:none;stroke-width:0.063389;stroke-opacity:1"
         d="m 3.6420212,3.6807955 c 0,0 0.1972558,0.1469182 0.2391194,-0.055346 C 3.9230056,3.4231841 4.28218,1.3510432 4.28218,1.3510432 c 0,0 0.030368,-0.1019066 -0.2134487,-0.1253959 -0.2438155,-0.02349 -2.1330729,1.0231522 -0.4267101,2.4551482 z"
         id="path8" />
      <path
         style="fill:#ffb43c;fill-opacity:1;stroke:none;stroke-width:0.063389;stroke-opacity:1"
         d="m 4.3259402,4.256703 c 0,0 -0.197256,-0.1469184 -0.2391198,0.055347 -0.041864,0.2022653 -0.4010394,2.2744064 -0.4010394,2.2744064 0,0 -0.030368,0.1019064 0.2134488,0.125396 0.2438154,0.023488 2.1330729,-1.0231537 0.4267104,-2.4551494 z"
         id="path8-0" />
      <path
         style="fill:#ffb43c;fill-opacity:1;stroke:none;stroke-width:0.063389;stroke-opacity:1"
         d="m 4.2567037,3.6347835 c 0,0 -0.1469184,0.1972558 0.055347,0.2391195 0.2022653,0.041865 2.2744064,0.4010394 2.2744064,0.4010394 0,0 0.1019064,0.030368 0.1253952,-0.2134488 C 6.7353405,3.8176782 5.6886997,1.9284213 4.2567037,3.6347835 Z"
         id="path8-9" />
      <path
         style="fill:#ffb43c;fill-opacity:1;stroke:none;stroke-width:0.063389;stroke-opacity:1"
         d="m 3.6807964,4.3187025 c 0,0 0.146918,-0.197256 -0.055347,-0.2391198 -0.202265,-0.041864 -2.2744062,-0.4010393 -2.2744062,-0.4010393 0,0 -0.1019064,-0.030368 -0.1253959,0.2134487 -0.02349,0.2438155 1.0231529,2.1330728 2.4551491,0.4267104 z"
         id="path8-0-0" />
    </g>
    <rect
       style="fill:none;fill-opacity:1;stroke:#ffb43c;stroke-width:0.345412;stroke-linejoin:round;stroke-dasharray:none;stroke-opacity:1"
       id="rect8"
       width="10.237921"
       height="10.237921"
       x="2.8185394"
       y="0.17270571"
       rx="0.68252808"
       ry="0.68252808" />
  </g>
  <g
     inkscape:label="light_on"
     inkscape:groupmode="layer"
     id="g47"
     transform="scale(1.3333332)">
    <rect
       style="fill:none;fill-opacity:1;stroke:#ffb43c;stroke-width:0.259059;stroke-linejoin:round;stroke-dasharray:none;stroke-opacity:1"
       id="rect41"
       width="7.6784415"
       height="7.678441"
       x="0.12952918"
       y="0.12952918"
       rx="0.51189613"
       ry="0.51189607"
       inkscape:label="rect36" />
    <g
       id="g46"
       transform="translate(-0.0289286,-0.28582303)">
      <path
         id="path41"
         style="fill:#ffb43c;fill-opacity:1;stroke:none;stroke-width:0;stroke-linejoin:round;stroke-dasharray:none;stroke-opacity:1"
         d="M 3.9957916,1.4060873 C 3.8291518,1.4061816 3.6525444,1.4059711 3.5235857,1.4070312 3.417146,1.4079088 3.4148999,1.4506139 3.4183889,1.5674208 H 4.576968 C 4.5804571,1.4506134 4.5782107,1.4079083 4.4717713,1.4070307 4.3428123,1.4059688 4.1662052,1.4061846 3.9995654,1.4060873 Z M 3.4188607,1.7070536 c -0.00123,0.063563 -0.00467,0.1370524 -0.016983,0.2287911 -7.327e-4,0.00546 -0.00159,0.010212 -0.00236,0.015567 h 1.1963227 c -7.686e-4,-0.00536 -0.00162,-0.010108 -0.00236,-0.015567 C 4.5811667,1.844106 4.5777275,1.7706163 4.5764963,1.7070536 Z M 3.3735742,2.0910453 C 3.2921018,2.4305768 3.134405,2.4920192 3.134405,2.4920192 2.632104,2.8473576 2.289264,3.4019191 2.2890574,4.0237401 c 1e-7,0.9653211 0.7549832,1.7539602 1.7067342,1.808157 v 4.718e-4 c 6.267e-4,-3.44e-5 0.00126,3.49e-5 0.00189,0 6.299e-4,3.51e-5 0.00126,-3.46e-5 0.00189,0 V 5.8318971 C 4.9439701,5.8291983 5.7062995,4.989068 5.7062996,4.0237401 5.706093,3.4019191 5.3632532,2.8473576 4.860952,2.4920192 c 0,0 -0.1576967,-0.061442 -0.2391692,-0.4009739 z"
         sodipodi:nodetypes="ccccccccsccccccccccccccccc" />
      <rect
         style="fill:#ffb43c;fill-opacity:1;stroke:none;stroke-width:0;stroke-linejoin:round;stroke-dasharray:none;stroke-opacity:1"
         id="rect42"
         width="0.98797935"
         height="0.25405183"
         x="-1.7474029"
         y="5.1193891"
         ry="0.13229166"
         transform="rotate(-32.974084)" />
      <rect
         style="fill:#ffb43c;fill-opacity:1;stroke:none;stroke-width:0;stroke-linejoin:round;stroke-dasharray:none;stroke-opacity:1"
         id="rect43"
         width="0.98797935"
         height="0.25405183"
         x="-4.0703011"
         y="5.4523692"
         ry="0.13229166"
         transform="rotate(-56.417249)" />
      <rect
         style="fill:#ffb43c;fill-opacity:1;stroke:none;stroke-width:0;stroke-linejoin:round;stroke-dasharray:none;stroke-opacity:1"
         id="rect44"
         width="0.98797935"
         height="0.25405183"
         x="-8.4548426"
         y="0.76783895"
         ry="0.13229166"
         transform="matrix(-0.83891683,-0.54425963,-0.54425963,0.83891683,0,0)" />
      <rect
         style="fill:#ffb43c;fill-opacity:1;stroke:none;stroke-width:0;stroke-linejoin:round;stroke-dasharray:none;stroke-opacity:1"
         id="rect45"
         width="0.98797935"
         height="0.25405183"
         x="-8.649292"
         y="-1.4440696"
         ry="0.13229166"
         transform="matrix(-0.55314077,-0.8330878,-0.8330878,0.55314077,0,0)" />
      <rect
         style="fill:#ffb43c;fill-opacity:1;stroke:none;stroke-width:0;stroke-linejoin:round;stroke-dasharray:none;stroke-opacity:1"
         id="rect46"
         width="0.98797935"
         height="0.25405183"
         x="-7.0442195"
         y="-4.2204633"
         ry="0.13229166"
         transform="matrix(0.014553,-0.9998941,-0.9998941,-0.014553,0,0)" />
    </g>
  </g>
</svg>
